<?xml version="1.0" encoding="UTF-8"?>
<svg id="Layer_2" data-name="Layer 2" xmlns="http://www.w3.org/2000/svg" viewBox="0 0 235.03 240.65">
  <defs>
    <style>
      .cls-1 {
        fill: #15a68c;
      }

      .cls-1, .cls-2, .cls-3, .cls-4, .cls-5, .cls-6, .cls-7, .cls-8, .cls-9, .cls-10, .cls-11, .cls-12, .cls-13, .cls-14, .cls-15, .cls-16, .cls-17, .cls-18, .cls-19, .cls-20, .cls-21, .cls-22, .cls-23, .cls-24, .cls-25, .cls-26, .cls-27, .cls-28, .cls-29, .cls-30, .cls-31, .cls-32, .cls-33, .cls-34, .cls-35, .cls-36, .cls-37, .cls-38, .cls-39, .cls-40, .cls-41, .cls-42, .cls-43, .cls-44, .cls-45, .cls-46, .cls-47, .cls-48, .cls-49, .cls-50, .cls-51, .cls-52, .cls-53, .cls-54, .cls-55, .cls-56, .cls-57, .cls-58, .cls-59, .cls-60, .cls-61, .cls-62, .cls-63, .cls-64, .cls-65, .cls-66, .cls-67, .cls-68, .cls-69, .cls-70, .cls-71, .cls-72, .cls-73, .cls-74, .cls-75, .cls-76, .cls-77, .cls-78, .cls-79, .cls-80, .cls-81, .cls-82, .cls-83, .cls-84, .cls-85, .cls-86, .cls-87, .cls-88, .cls-89, .cls-90, .cls-91, .cls-92, .cls-93, .cls-94, .cls-95, .cls-96, .cls-97, .cls-98, .cls-99, .cls-100, .cls-101, .cls-102, .cls-103, .cls-104, .cls-105, .cls-106 {
        stroke-width: 0px;
      }

      .cls-2 {
        fill: #04c39d;
      }

      .cls-3 {
        fill: #05917a;
      }

      .cls-4 {
        fill: #047c67;
      }

      .cls-5 {
        fill: #045d4e;
      }

      .cls-6 {
        fill: #054438;
      }

      .cls-7 {
        fill: #04866e;
      }

      .cls-8 {
        fill: #034133;
      }

      .cls-9 {
        fill: #13695d;
      }

      .cls-10 {
        fill: #10594f;
      }

      .cls-11 {
        fill: #06cfa8;
      }

      .cls-12 {
        fill: #039278;
      }

      .cls-13 {
        fill: #026352;
      }

      .cls-14 {
        fill: #046655;
      }

      .cls-15 {
        fill: #0d4235;
      }

      .cls-16 {
        fill: #174037;
      }

      .cls-17 {
        fill: #06b794;
      }

      .cls-18 {
        fill: #04594b;
      }

      .cls-19 {
        fill: #046857;
      }

      .cls-20 {
        fill: #04a784;
      }

      .cls-21 {
        fill: #035447;
      }

      .cls-22 {
        fill: #0b5d4c;
      }

      .cls-23 {
        fill: #07bd98;
      }

      .cls-24 {
        fill: #006753;
      }

      .cls-25 {
        fill: #03453a;
      }

      .cls-26 {
        fill: #16685d;
      }

      .cls-27 {
        fill: #1b6758;
      }

      .cls-28 {
        fill: #08af91;
      }

      .cls-29 {
        fill: #3ebaa0;
      }

      .cls-30 {
        fill: #06967e;
      }

      .cls-31 {
        fill: #06ac88;
      }

      .cls-32 {
        fill: #2ec8ae;
      }

      .cls-33 {
        fill: #145e4e;
      }

      .cls-34 {
        fill: #045447;
      }

      .cls-35 {
        fill: #49ad97;
      }

      .cls-36 {
        fill: #099c83;
      }

      .cls-37 {
        fill: #026957;
      }

      .cls-38 {
        fill: #048b72;
      }

      .cls-39 {
        fill: #186657;
      }

      .cls-40 {
        fill: #016c5a;
      }

      .cls-41 {
        fill: #099f80;
      }

      .cls-42 {
        fill: #046352;
      }

      .cls-43 {
        fill: #035446;
      }

      .cls-44 {
        fill: #0d4037;
      }

      .cls-45 {
        fill: #044c40;
      }

      .cls-46 {
        fill: #184038;
      }

      .cls-47 {
        fill: #18bfa0;
      }

      .cls-48 {
        fill: #08c7a3;
      }

      .cls-49 {
        fill: #06bf9e;
      }

      .cls-50 {
        fill: #0e4f46;
      }

      .cls-51 {
        fill: #036757;
      }

      .cls-52 {
        fill: #045043;
      }

      .cls-53 {
        fill: #1c8972;
      }

      .cls-54 {
        fill: #036253;
      }

      .cls-55 {
        fill: #1a8d74;
      }

      .cls-56 {
        fill: #08b798;
      }

      .cls-57 {
        fill: #04b38b;
      }

      .cls-58 {
        fill: #24685e;
      }

      .cls-59 {
        fill: #286459;
      }

      .cls-60 {
        fill: #2b9a81;
      }

      .cls-61 {
        fill: #12463b;
      }

      .cls-62 {
        fill: #116b5c;
      }

      .cls-63 {
        fill: #03d5ac;
      }

      .cls-64 {
        fill: #08b08f;
      }

      .cls-65 {
        fill: #059e82;
      }

      .cls-66 {
        fill: #1f645b;
      }

      .cls-67 {
        fill: #134640;
      }

      .cls-68 {
        fill: #03594a;
      }

      .cls-69 {
        fill: #037561;
      }

      .cls-70 {
        fill: #2bc6a5;
      }

      .cls-71 {
        fill: #08aa8e;
      }

      .cls-72 {
        fill: #1cb692;
      }

      .cls-73 {
        fill: #1a5e54;
      }

      .cls-74 {
        fill: #157f67;
      }

      .cls-75 {
        fill: #025e4f;
      }

      .cls-76 {
        fill: #045f51;
      }

      .cls-77 {
        fill: #0bb093;
      }

      .cls-78 {
        fill: #17554b;
      }

      .cls-79 {
        fill: #245d53;
      }

      .cls-80 {
        fill: #069477;
      }

      .cls-81 {
        fill: #155f51;
      }

      .cls-82 {
        fill: #16bd9f;
      }

      .cls-83 {
        fill: #123a30;
      }

      .cls-84 {
        fill: #07a388;
      }

      .cls-85 {
        fill: #114237;
      }

      .cls-86 {
        fill: #04574a;
      }

      .cls-87 {
        fill: #025a4b;
      }

      .cls-88 {
        fill: #07bf9e;
      }

      .cls-89 {
        fill: #02ad85;
      }

      .cls-90 {
        fill: #035e4f;
      }

      .cls-91 {
        fill: #04a080;
      }

      .cls-92 {
        fill: #026555;
      }

      .cls-93 {
        fill: #03463a;
      }

      .cls-94 {
        fill: #103e35;
      }

      .cls-95 {
        fill: #2c695f;
      }

      .cls-96 {
        fill: #2eaa8f;
      }

      .cls-97 {
        fill: #096157;
      }

      .cls-98 {
        fill: #016b58;
      }

      .cls-99 {
        fill: #05d6aa;
      }

      .cls-100 {
        fill: #046d5a;
      }

      .cls-101 {
        fill: #123d31;
      }

      .cls-102 {
        fill: #43ceb3;
      }

      .cls-103 {
        fill: #039a7d;
      }

      .cls-104 {
        fill: #044b3f;
      }

      .cls-105 {
        fill: #045044;
      }

      .cls-106 {
        fill: #04493d;
      }
    </style>
  </defs>
  <g id="Layer_1-2" data-name="Layer 1">
    <g>
      <path class="cls-98" d="M217.22,67.38c1.26.28.97,1.66,1.67,2.34,1.49,4.18,3.14,8.29,5.94,11.82.05.6.1,1.2.15,1.8,2.31,7.9,6.94,14.98,8.22,23.27.31,2.02.79,3.88-.35,5.74-3.83,3.62-8.21,5.41-13.52,4.1q-5.85-3.18-2.43-7.51c-2.21-.84-3.32-2.53-3.28-4.85.21-11.2-6.07-19.26-13.21-26.77-2.04-2.14-3.06-3.87-.95-6.34,1.11-1.29,1-2.66.62-4.2-.77-3.12-.7-6.24.5-9.28.33-.38.72-.68,1.17-.91,1.43-.49,2.87-.89,4.4-.85,3.46.98,5.85,2.73,5.26,6.12-.65,1.35.81.78.14.8-.24,0-.14-.14-.1-.47.12-1.04.16-2.18,1.67-1.49,1.1.5.83,2.19,2.08,2.64h.02c-.73,2.05.68,3.03,2.02,4.05Z"/>
      <path class="cls-51" d="M169.09,15.43c1.63.93,3.25,1.86,4.88,2.8,4.6.6,8.3,2.61,10.61,6.79-.2,2.15,2.78,4.66.28,6.29-4.02,2.62-7.72,6.95-13.34,5.27-6.03-1.79-13.05-1.57-17.1-7.8-.35-.53-1.13-1.17-1.64-1.01-4.98,1.56-7.92-3.41-12.43-3.81-2.96-.27-4.43-3.71-6.31-6-1.38-4.25.02-7.16,4.2-8.72,1.41-.64,2.62-.24,3.58.86,1.45,1.65,3.32,2.07,5.39,2.09,4.24.06,7.06,2.1,9.06,5.88,3.06,5.8,11.88,8.27,18.17,5.12-2.53-1.77-4.99-3.39-7.06-5.5-1-1.97-.76-2.97,1.73-2.25Z"/>
      <path class="cls-40" d="M167.9,17.5c3.67.65,5.45,4.67,9.57,4.72-3.39,4.12-7.57,5-11.74,3.63-1.9-.63-3.44-1.99-5.4-2.27-2.98-.43-4.61-2.16-5.46-4.96-.83-2.71-2.75-5-5.52-4.9-4.3.17-7.77-.79-10.45-4.21-2.2,1.11-5.4.83-5.91,4.27-1.97.91-3.32-.75-4.98-1.17-3.77-2.36-1.54-5.03-.4-7.65,3.87-4.76,6.17-5.31,13.4-1.91,3.92,1.84,7.91,3.25,12.06,4.33v-.02c1.77,3.33,5.3,3.06,8.23,4.04.54.38,1.07.75,1.61,1.13.62,2.71,2.59,4.07,5,4.98Z"/>
      <path class="cls-62" d="M232.86,111.44c-1.1-5.31-2.84-10.5-3-15.9-1.48-.3-.67,2.12-2.65,1.09.36-4.38-2.66-8.49-2.23-13.28,2.1.34,2.19,2.29,2.73,3.7,2.22,5.78,4.29,11.63,6.41,17.45.66,2.48-.04,5.04.48,7.52-.15.9-.53,1.59-1.57,1.65-.7-.7-.76-1.44-.17-2.23Z"/>
      <path class="cls-26" d="M198.71,57.43c7.68-6.27,8.81-6.12,14.39,1.84.56.8,1.19,1.54,1.79,2.3.1.59.2,1.18.29,1.77-1.4.05-1.87-1.48-2.96-2.17-.25,1.01-.41,1.63-.89,3.55-.35-4.65-2.31-6.91-5.43-8.22-1.55-.55-2.68.63-4,1-.33,0-.65.02-.98.03-.77.6-1.5.51-2.21-.11Z"/>
      <path class="cls-58" d="M224.82,81.54c-.51.36-1.01.72-1.52,1.07-.8-4.53-5.6-7.69-4.43-12.89,2.53,3.67,4.77,7.47,5.94,11.82Z"/>
      <path class="cls-9" d="M167.9,17.5c-4.41.37-6.34-1.55-5-4.98,2.53-.02,4.37,1.42,6.18,2.91-1.59,0-1.88.76-1.19,2.07Z"/>
      <path class="cls-39" d="M161.3,11.39c-3.62.94-6.51-.88-9.51-2.43.47-.59.87-1.1,1.27-1.61,3.01.81,5.76,2.15,8.24,4.04Z"/>
      <path class="cls-26" d="M217.22,67.38c-2.05-.66-5.11-.82-2.02-4.04,1.34,1.02,1.95,2.4,2.02,4.04Z"/>
      <path class="cls-42" d="M181.03,215.54c-.38-.04-.75-.07-1.13-.11-2.22.41-4.46.67-6.41,2.05-2.06,1.46-4.52,1.96-6.42.11-1.82-1.76-.1-3.69.71-5.44.28-.6.69-1.14.68-2.28-5.36-1.41-9.58-5.33-15.13-7.21-5.12-1.74-9.29-6.14-14.16-9.01-3.4-2-6.55-4.4-10.37-5.65-.38-.36-.65-.79-.85-1.27-.62-2.35-.77-4.68.36-6.93,4.35-1.16,7.84,1.19,11.24,3.16,5.42,3.14,10.41,7.09,15.97,9.88,3.91,1.96,8.34,2.87,11.55,6.16,3.58,3.77,7.32,6.91,13.16,5.24,2.22-.63,4.53-.09,6.65.92,1.36,1.05-.37,2.33.24,3.44-.06.32-.18.62-.36.89-1.72.83-2.49,2.62-3.87,3.8-.62.75-1.24,1.5-1.87,2.26Z"/>
      <path class="cls-66" d="M187.12,208.59c-3.74-.77,1.36-2.17-.22-3.09-1.28-2.51-3.33-4.88-1.34-7.94,2.03-.87,2.5.85,3.32,1.99h-.01c.37.28.65.65.85,1.08.32,2.29.92,4.62-.81,6.67-.6.43-1.19.86-1.79,1.3Z"/>
      <path class="cls-59" d="M188.91,207.29c.51-2.28.22-4.57.02-6.85,1.94-.41,1.14,1.58,1.92,2.19,0,1.83.28,3.77-1.95,4.67Z"/>
      <path class="cls-59" d="M182.89,213.28c-.16-2.75,1.21-3.93,3.87-3.8l-1.02,1.94c-.18,1.13-.79,1.78-1.98,1.78h-.44s-.43.07-.43.07Z"/>
      <path class="cls-2" d="M16.92,59.57c2.47-1.55,3.09-4.83,5.79-6.16,4.6-.33,8.72.69,11.33,4.8,1.5,2.38,3.31,3.97,6.12,4.33.49.17.93.42,1.34.73,1.34,1.27,2.54,2.6,2.3,4.65-2.13,3.95-6.14,2.32-9.28,2.84-3.01.5-6.01.13-6.96,4.01-.24,1-1.3,1.72-2.32,1.58-3.96-.57-5.7,1.74-6.92,4.95-.53,1.41-1.21,2.87-3.06,2.8-2-.07-2.74-1.6-3.34-3.21-.52-1.4-.25-2.99-1.03-4.33-1.66-2.91,1.25-5.26.96-8.01.12-.44.32-.84.55-1.23,1.36-.81,1.79-2.3,2.56-3.54,1.18-1.16.48-3.18,1.93-4.22Z"/>
      <path class="cls-17" d="M2.97,85.53c.58-.71,1.16-1.42,1.74-2.13.42-.31.85-.32,1.31-.09,1.4,3.82-.26,7.35-.47,11.07.04-6.84,5.27-7.09,10.27-8.72,5.11-1.66,9.02-6.04,13.47-9.2,2.89-2.06,5.46-2.99,8.68-1.27,1.29,1.99.02,3.44-1.18,4.72-1.68,1.8-2.98,3.83-4.21,5.92-2.89,2.93-5.23,6.53-9.77,7.36-1.14.21-1.68,1.43-1.83,2.72-.54,4.69-2.01,5.92-6.8,5.44-3.3-.33-6.59-.63-9.92-.46-5.42-4.27-5.47-9.69-1.29-15.35Z"/>
      <path class="cls-29" d="M12.86,67.48c.05-.66.1-1.32.14-1.98.66-.57,1.33-1.14,1.99-1.72-.16,1.55.39,3.51-2.13,3.69Z"/>
      <path class="cls-47" d="M5.91,83.52c-.4-.04-.8-.08-1.2-.12.12-1.62.86-2.94,2.01-4.05.21.17.42.35.64.52.49,1.6,1.21,3.3-1.44,3.65Z"/>
      <path class="cls-47" d="M7.05,76.78c.58-.46,1.15-.93,1.73-1.39,1.35,2.2.71,3.58-1.75,4.2l-.31-.23c.11-.86.22-1.72.33-2.58Z"/>
      <path class="cls-34" d="M165.8,66.52c.37.38.73.76,1.1,1.13.53.63.64,1.3.22,2.03-3.78,2.68-4.36,4.94-1.08,7.82,3.51,3.09,5.61,6.96,7.88,10.83,1.26,2.16,2.4,4.58,4.53,5.91,5.01,3.13,7.56,8.43,9.35,13.23,2.09,5.61,5.93,5.86,10.2,6.62,1.3.23,2.66.02,4,.13,2.29.45,4.65.09,6.94.61,1.39.42,3.02.36,4.23,2.55-5.81,2.88-11.84,1.15-17.66,1.34-3.93-1.06-8.01-1.36-11.97-2.29-7.24-6.42-13.45-13.61-18.24-22.16-2.97-5.3-7.1-9.99-10.98-14.7-3.38-4.11-6.88-7.93-8.98-12.99-1.6-3.84-6.05-5.63-7.87-9.87-2.09,1.21-2.47,4.3-5.17,3.55-2.87-.79-3.06-3.69-4.44-5.66-.49-3.45-.72-6.9.15-10.32,1.22-1.77,4.55-.38,5.08-3.74.19-1.22,2.27.03,3.26.88,2.9,2.5,5.27,5.52,8.08,8.12,1.32,1.22,2.34,2.83,4.03,3.46,1.82-.04,1.53-3.51,3.85-2.27,1.91,1.01,1.95,3.03,1.79,4.84-.36,3.98.96,7.46,2.88,11.31,1.41-2.11.38-4.09.64-5.9.25-1.76-.63-4.21,2.42-4.5,2.12,1,2.53,2.93,2.58,4.96.05,2.38.91,4.14,3.18,5.07Z"/>
      <path class="cls-33" d="M178.91,42.57c-3.3,4.68-8.43,7.52-12,11.93-.33.35-.74.46-1.21.36-.65-.27-1.17-.72-1.57-1.3-1.4-2.85,1.67-3.28,2.62-4.86,3.32-3.19,6.68-6.31,9.17-10.28,1.34-2.14,3.28-3.44,5.55-.8.96,2.59-.98,3.69-2.57,4.96Z"/>
      <path class="cls-79" d="M178.91,42.57c.85-1.61,2.42-2.93,2.02-5.04,2.14-4.35,2.26-4.46,5.12-4.35.48-1.78-.59-3.85.85-5.47,3.4,3.16,3.54,4.39.78,7.49-1.29,1.45-2.67,2.81-4.01,4.22-1.86.63-2.51,3.09-4.75,3.16Z"/>
      <path class="cls-78" d="M164.91,53.5c.34.37.68.74,1.03,1.11.24.68.12,1.38-.29,1.87-2.63,3.12-2.49,6.12.26,9.07.09.34.06.66-.1.98-3.15,1.59-4.15-.48-4.33-2.91-.16-2.18.11-4.36-1.56-6.11.58-1.65,1.33-3.2,2.46-4.54.95-.3,1.79-.08,2.55.54Z"/>
      <path class="cls-78" d="M166.88,69.51c0-.62.01-1.24.02-1.86,1.62-.05,2.23,1.79,3.72,1.98,1.92,2.41,4.56,2,7.15,1.82.44-.37.9-.39,1.37-.05.42.72.42,1.45.05,2.2-.37.39-.8.66-1.31.83-3,.52-5.98.4-8.86-.56-2.07-.69-3.75-1.76-2.14-4.35Z"/>
      <path class="cls-92" d="M198.71,57.43c.74.04,1.47.07,2.21.11.94,3.7-1.39,7.79,1.69,11.36.88,1.02-1.04,2.06-2.09,2.88-1.77,1.37-2.34,2.41.3,3.97,2.8,1.65,4.57,4.64,6.39,7.38.73,1.1,1.32,2.31,2.17,3.31,3.67,4.26,5.44,9.22,5.52,14.79.08,5.64.03,5.64,5.45,7.01-.02,1.67-1.79,1.12-2.47,1.92-.72.86-2.07,1.07-2.54,2.38.76,1.47,3.19,1.05,3.57,2.98-1.57,1.59-3.4,1.48-5.31.85-2.15-1.63-6.48-1-6.57-4.44-.08-3.13-1.52-5.84-1.5-8.87.03-4.71-1.62-7.87-5.69-11.17-4.07-3.31-6.56-8.91-9.46-13.68-.73-1.2-.08-2.6,1.21-3.51-5.83-2.5-5.93-3.86-.91-9.5,1.98-1.7,3.93-3.43,5.21-5.77.74-.95,1.68-1.62,2.82-1.99Z"/>
      <path class="cls-81" d="M211.74,113.46h6c5.31.91,9.62-1.63,13.96-4.07.01.66.02,1.33.04,1.99,1.21,2.29-.54,3.37-1.94,4.46-2.05,1.58-4.46,2.11-7.04,2.11-13.65,0-27.3,0-40.94,0-1.67,0-3.35.05-4.76-1.09-1.05-2.81,1.36-2.19,2.66-2.68,4.67.44,9.38.34,14.01,1.23h17.23c-1.26-1.61-3.46-.3-4.2-1.95,1.67-1.47,3.33-.95,5,0Z"/>
      <path class="cls-92" d="M201.9,57.5c1.17-1,2.17-2.68,4-1-1.25.69-2.54,1.17-4,1Z"/>
      <path class="cls-71" d="M52.03,71.43c2.33,2.47,4.93.48,6.77-.3,5.02-2.13,10.08-4.63,12.24-10.32.69-2.84-3.62-3.87-2.49-6.88,1.86-1.96,3.09-.44,4.37.79,1.89,2.17,2.26,4.89,2.75,7.54.02.13.06.29.06.46,0,.16-.02.33-.03.49,5.42.18,8.72-4.22,13.18-6.15,4.23-1.83,8.11-4.6,12.75-5.26,2.28-.33,2.14-2.74,3.85-3.4,2.35,1.56,1.46,4.25,2.3,6.29.08.98.09,1.94-.57,2.76-16.58,7.67-31.95,17.37-47.43,27.01-6.17,3.84-12.47,9.71-21.08,8.42-1.61-.14-3.48-.05-4.11-1.92-.62-1.84.91-2.96,2.02-4.11,1.01-1.06,2.09-2.04,3.13-3.06,2.03-2.78,4.67-4.5,8.15-5.08,2.82-.47,5.44-1.53,6.61-4.48.75,0-.1-1.05.2-.45.12.25,0,.29-.37.33-2.03.25-3.59-.01-3.15-2.66.01-.07.25-.14.38-.14.16,0,.32.08.48.13Z"/>
      <path class="cls-48" d="M48.97,36.45c-1.51-3.15-1.59-6.17.83-8.96.44-.24.88-.26,1.33-.02.83.99.8,2.13.59,3.3-.18,1-.03,1.89.35,2.88,1.4,3.64,5.44,2.02,7.52,3.84,2.8,2.45,5.08,2.72,7.61-.1.66-.74,1.55-1.47,2.55-1.46,10.29.09,16.18-8.27,24.16-12.58,2.97-1.6,5.16-4.84,9.64-4.13.07-3.47-.4-7.24,2.43-10.07.81-.82,1.36-2.11,2.9-1.63,0,1.32,0,2.65-.01,3.97-.98,2.89-.51,5.89-.41,8.81.12,3.59-.81,6.81-2.44,10.38-3.49-2.11-5.79-.14-8.59,1.88-7.08,5.11-14.08,10.41-21.91,14.39-.57.35.15-.11-.42.24-5.02,3.09-6.75,3.37-12.53,1.99-3.38-.59-4.43-3.83-6.62-5.78-1.82-2.84-4.45-4.86-6.99-6.97Z"/>
      <path class="cls-77" d="M52.03,71.43c-.61,3.77,2.9,1.05,3.75,2.44-.26,4.84-4.21,5.86-7.7,6.27-3.35.4-5.39,1.9-7.17,4.36-3.09-.46-5.96,1.07-9,1,.25-2.37,1.59-4.11,3.2-5.73,1.21-1.22,2.82-2.23,2.8-4.27,2.12-5.41,4.34-6.2,8.04-2.32-.2-2.71-2.22-3.89-3.04-5.68.19-1.73-2.37-2.28-1.8-4.17,2.41-.63,2.91,1.39,3.86,2.79,2.35,1.77,4.71,3.54,7.06,5.31Z"/>
      <path class="cls-13" d="M186.89,27.7c1.47,5.38-2.95,7.18-5.97,9.83-2.13-.98-3.13-.11-4.2,1.88-2.29,4.23-5.54,7.7-9.8,10.11-2.03,1.46-4.36,1.27-4.74-1.1-1.06-6.79-7.18-8.11-11.51-11.23-2.26-1.63-4.75-2.93-6.64-5.03-1.6-1.78-3.42-3.05-5.89-3.26-2.88-.24-4.55-1.74-4.6-4.76.06-1.97-.38-4.06,1.37-5.61,1.27.02,2.19.6,2.85,1.69.42.71.82,1.78,1.44,1.96,3.76,1.07,7.6,1.67,10.49,4.89.75.84.96-1.8,2.17-2.15,1.66-.06,2.19,1.48,2.83,2.45,4.33,6.63,11.86,5.96,18.12,8.16,3.56,1.25,5.42-2.1,8.11-3.19,1.31-.53,2.47-1.61,3.95-1.94-.1-1.7-2.79-3.05-.67-5.04.9.78,1.8,1.57,2.71,2.35Z"/>
      <path class="cls-97" d="M134.91,18.51v6c-.9.65-1.73.55-2.5-.24-1.56-3.66-1.86-7.27.5-10.76.16-1.77-.4-3.61.65-5.61,1.66.91,3.32,2.03,5.35,1.61-2.96,2.28-5.01,4.95-4,9Z"/>
      <path class="cls-22" d="M126.7,5.42l2.21.06c.34,2.01-4.76,4.01-.02,6.04,2.99,4.88,1.32,10.2,1.48,15.35.12,2.02.21,4.04-.07,6.06-.17,1.94-1.46,3.49-1.88,5.35-.21,2.97-.22,5.96-.99,8.86-.37.53-.84.64-1.41.35-.03-13.28-.06-26.56-.08-39.85,0-.81-.06-1.68.76-2.22Z"/>
      <path class="cls-24" d="M128.91,27.5c0-5.33-.01-10.65-.02-15.98,1.77-.2,2.26,2.16,4.01,1.98v11c-.15,2.57-1.16,4-4,3Z"/>
      <path class="cls-11" d="M106.93,9.47c-3.29,3.96-1.33,8.9-2.33,13.27-2.56.47-.96-2.66-3.13-2.81-2.63,1.86-5.47,4.34-8.49,5.91-6.55,3.41-11.2,11.1-18.79,11.01-5.4-.06-7.38,4.43-11.95,5.12-2.15-1.74-3.31-6.57-7.98-3.54-.19.12-2.07-2.71-3.39-3.91-1.59-1.44-1.39-2.57-.22-4.16.49-.67.18-1.93.24-2.92.48-3.54,3.29-4.71,6.05-5.93,1.64-1.11,3.27-2.21,4.91-3.32.72.26,1.26.71,1.57,1.42.76,2.71-2.96,3.43-2.57,7.43,1.21-4.59,3.43-5.26,6.45-4.05,1.85.74,2.57-.98,3.7-1.84,4.86-3.7,9.07-3.84,14.15-.4,2.35-2.88,7.13-2.68,8.91-7.38-5.26-.59-10.28-1.42-15.37-1.83-.35-.72-.33-1.4.25-2,2.93-1.39,5.59-3.36,8.82-4.12.89-.49,1.84-.52,2.81-.35,1.45,1.41-.39,1.88-.64,2.84,3.92,1.62,6.95-.81,10.08-2.69,1.4-.84,2.36-2.39,4.15-2.65,5.27.55,3.68,3.86,2.79,6.9Z"/>
      <path class="cls-32" d="M78.92,9.54c-.01.65-.02,1.31-.03,1.96-1.92,3.43-4.13,6.27-8.73,4.47-1.1-1.23-.06-1.82.74-2.49,1-.69,2-1.38,3-2.08,1.82-.24,3.08-1.99,5.03-1.86Z"/>
      <path class="cls-32" d="M62.92,19.57c-.36-.46-.72-.92-1.08-1.38,1.68-.9,3.36-1.8,5.04-2.7.65-.55,1.36-.51,2.1-.22-.14,4.31-1.27,5.12-6.06,4.29Z"/>
      <path class="cls-102" d="M68.97,15.56c-.7-.02-1.4-.04-2.1-.06,1.13-1.08,2.43-1.85,4.02-2.01-.34.66-.68,1.31-1.03,1.97-.26.36-.56.4-.9.11Z"/>
      <path class="cls-3" d="M101.91,103.47c-10.69-.06-21.38-.12-32.08-.18-3.62-.48-7.24-.48-10.87,0-.38,0-.75,0-1.13,0-2.07-.6-4.19-.15-6.29-.31-1.03-.08-1.98-.2-1.74-1.62,1.32-1.26,2.97-1.33,4.65-1.3,3.65.06,7.3.13,10.95-.06,3.89-.2,7.58-1.24,10.63-3.71,3.88-3.14,7.52-6.36,12.97-6.68,2.79-.16,4.24-3.01,5.91-5.03,2.24-2.74,4.47-5.42,8.31-5.83,1.66-.18,2.2-1.15,2.34-2.66.13-1.47.29-2.99,1.9-3.72,1.71,1.02.35,2.92,1.33,4.09.46,6.98.31,13.95-.13,20.93-.3,4.19-2.78,5.96-6.75,6.07Z"/>
      <path class="cls-30" d="M108.79,76.47c-1.08-.67-.7-2.06-1.73-4.03v8.22c-4.81-1.58-7.76.32-10.35,4.02-2.68,3.82-5.38,7.76-11.4,7.02-3.15-.39-5.66,2.99-7.47,5.01-3.18,3.57-7.08,4.13-11.01,4.67-3.91.54-7.95.11-11.93.11-1.26-2.57.86-2.86,2.36-3.14,2.13-.39,3.76-1.12,4.43-3.36.88-2.9,4.06-2.55,5.92-4.08,10.46-2.13,18.43-8.68,26.48-15.05,1.72-1.36,3.4-2.84,5.45-3.41,2.74-.77,4.11-2.57,5.05-4.94,1.31-.12,1.14-.92,1.09-1.98-.12-2.73-.91-5.62,1.22-8.03v-3c-.41-2.62-1.06-5.3,1.91-6.99.35,9.65.45,19.31-.02,28.96Z"/>
      <path class="cls-28" d="M108.81,47.51c-1.19,2.18-1.7,4.55-1.91,6.99-1.81-1.33-.4-3.51-1.66-5.63.13,3.26-1.83,4.05-4.02,4.59-7.29,1.8-13.91,5.02-19.34,10.2-2.09,2-3.22,1.46-4.4-.41-1.58,1.02-1,3.06-2.81,3.94-.8-1.7.68-3.19.24-4.69.02-.24.04-.47.05-.71.12-1.03.7-1.74,1.57-2.26,2.51-.91,4.7-2.11,6.27-4.51,1.86-2.84,4.66-4.12,8.04-5.17,4.43-1.39,8.07-4.86,12.84-5.91,1.7-.37,2.93-1.09,2.66.83-.69-2.85-1.18-6.4-.59-10,.09-.48.24-.94.43-1.38.65-.98,1.08-2.29,2.7-1.88.39,5.34.37,10.67-.07,16.01Z"/>
      <path class="cls-88" d="M74.91,46.51c.96-2.85,4.06-2.5,5.91-3.98,6.15-4.91,13.44-8.22,18.95-14.05,1.78-1.88,4.27-1.72,5.35.82,4.1-5.24,1.67-11.94,3.74-17.79.39,5.33.4,10.66.03,15.98-1.61,1.69-.74,4.2-1.99,6.01h0c-1.26,1.82.26,4.21-1.01,5.98-1.95.06-1.66-2.09-3.26-2.59-4.91,2.72-8.06,9.44-15.33,8.01-2.38-.2-3.05,1.37-3.38,3.28-.49,1.25-1.29,2.03-2.75,1.82-1.98-1.36-4.42-1.9-6.26-3.49Z"/>
      <path class="cls-70" d="M90.89,5.59c-1.05-.05-2.1-.11-3.15-.16.81-.6,1.62-1.19,2.43-1.79,3.1-1.06,6.17-2.21,9.31-3.16,5.49-1.66,9.05,1.06,9.4,7.06-.65.64-1.3,1.29-1.95,1.93-.19-2.76,1.18-6.57-4.01-5.99-2.6-.35-4.73,1.03-7.01,1.87-1.64.6-3.27,1.74-5.02.24Z"/>
      <path class="cls-56" d="M106.91,33.5c.66-2-1.61-4.98,1.99-6.01.33,1.34.35,2.68-.02,4.01-.66.66-1.31,1.33-1.97,1.99Z"/>
      <path class="cls-73" d="M178.96,71.57c-.4-.04-.79-.08-1.19-.12,3.7-2.33,7.4-4.66,11.1-6.99.17.18.35.35.52.53,1.02,3.09-2.36,4.05-3.04,6.33-2.38,2.46-4.84,2.54-7.39.26Z"/>
      <path class="cls-73" d="M195.89,59.42c.48,3.21-2.36,4.25-3.98,6.09-1.27,1.06-2.09.38-2.8-.73l-.24-.32c2.15-1.94,4.37-3.79,7.02-5.04Z"/>
      <path class="cls-15" d="M177.93,118.38c-13.79.04-27.58.11-41.37.09-4.21,0-7.7-1.73-10.32-5.09-.8-4.29-.57-8.63-.55-12.95.09-17.65.22-35.29.34-52.94.29.02.59.03.88.03,1.84,5.25,1.19,10.72,1.48,16.11.32,3.83-1.05,7.82,1.12,11.47.28.51.49,1.05.63,1.62.91,8.8.47,17.64.35,26.45-.09,6.53,1.01,10.09,10.48,10.59,7.31.39,14.64.08,21.97.29,4.95.21,9.83,1.24,14.82,1.17,1.4-.02,3.11.17,3.19,2.29-1.07.06-2.22-.18-3,.88Z"/>
      <path class="cls-82" d="M22.89,52.49c.68-.35,1.36-.7,2.04-1.05.65.03,1.31.06,1.96.08,3.91,2.76,7.81,5.52,11.72,8.28.1,1.68,2.38,1.84,2.47,3.53-3.6.74-6.26.07-7.8-3.86-1.81-4.62-7.04-4-10.56-6.06.02-.31.08-.62.17-.93Z"/>
      <path class="cls-52" d="M71.98,173.83c-.3-.14-.6-.28-.89-.42-.66-.42-.84-1.12-1.11-1.78-.45-1.47-.48-2.89.27-3.88-5.18-1.13-7.5-7.56-13.25-7.8-1.61-1.77-2.91-3.63-1.51-6.16-2.05-1.58-4.53-1.34-6.69-2.11-2.33-.84-3.55-2.34-1.74-4.47,1.97-2.32.56-3.55-.96-4.96-.98-.91-1.97-1.87-3.13-2.47-5.47-2.82-9.77-6.68-12.1-12.53-.98-2.46-3.26-2.35-5.44-2.68-2.4-.37-4.56-1.3-1.59-4.03,5.24-.86,10.5-.5,15.75-.25,1.91.48,3.52,1.65,3.94,3.47,1.07,4.67,4.63,7.08,8.01,9.79,7.04,5.62,12.16,13.34,19.39,18.65,12.04,8.83,21.21,20.35,31.03,31.3,1.16,1.29,1.58,2.86,2.29,4.33.73,1.5.52-.56,1-.59.72-1.05,1.27-2.34,2.94-1.71.37.4.64.86.82,1.38.62,2.92-.04,5.96.82,8.86.1,3.17.16,6.34-.03,9.5.41,2.12-2.51.17-2.39,1.95-.29,1.58-.07,3.38-1.86,4.27-1.35-.14-1.57-1.21-1.71-2.14-1.04-7.11-4.6-12.41-10.53-16.59-4.96-3.5-9.84-7.39-11.84-13.62-.33-1.02-1.1-1.61-2.12-1.9-1.91-.54-3.91-.78-3.49-3.77.1-.74-1.68-.12-2.6-.05-.41.19-.84.32-1.28.39Z"/>
      <path class="cls-8" d="M67.55,223.64c-.31.08-.53-.04-.64-.34-.87-2.41-3.12-2.9-5.15-3.68l.03.02c-1.14-3.46-3.41-5.82-6.6-7.63-2.74-1.55-5.14-3.68-5.45-7.21-.32-3.73.78-4.64,4.9-4.08,5.91.93,10.89,4.61,16.76,5.67,1.91.34,3.38,1.49,4.25,3.17,1.61,3.11,4.01,4.58,7.56,4.64,4.4.07,7.75,3.11,10.84,5.49,4.22,3.25,8.58,6.12,13.21,8.67,1.86,2.57,2.07,5.3.79,8.18-.23.47-.55.86-.96,1.19-1.02.37-1.94.43-2.39-.83,1-1.27.76-2.71.59-4.15.14,1.18.28,2.36-.19,3.51-2,5.48-6.01,2.95-9.53,2.39-3.2-.68-6.19-1.85-8.71-4.01-3.93-3.13-8.05-5.94-13.06-7.08-1.16-.31-2.25-.75-3-1.76-.66-1.36-2-1.68-3.25-2.14Z"/>
      <path class="cls-44" d="M.94,125.6l1.82-2.46c2.43,2.33,3.18,5.4,3.53,8.55.63,5.78,1.13,11.56,5.18,16.25.65.76.87,1.85.81,2.84-.27,4.28,1.74,7.7,4.05,11,2.05,2.94,2.77,6,1.04,9.36-.39.44-.88.62-1.46.56-1.1-1.19-1.63-2.67-2.07-4.19-1.8-5.55-4.5-10.72-6.93-16,.01-.87-.08-1.7-.85-2.27-1.38-.92-1.39-2.28-1.22-3.71-1.31-6.64-4.48-12.92-3.89-19.93Z"/>
      <path class="cls-61" d="M56.92,159.49c4.66-.99,7.33,2.05,9.97,5.03,1.82,2.06,5.84,2.9,4.02,7.04-2.56-.14-3.76-2.05-5.03-3.86-.4-.39-.8-.78-1.2-1.18-1.07-1.23-2.88-1.52-3.79-2.97l-.03-.02c-4.2-2.47-7.28,1.28-10.91,1.98-2.15.85-3.41,2.75-5.01,4.24-.92.94-1.5,2.54-3.34,1.73-2.2-2.98-1.78-5.38,1.56-7.16,2.69-.64,4.39-2.82,6.59-4.23,2.27-1.46,4.58-2.81,7.18-.62Z"/>
      <path class="cls-83" d="M53.92,201.5c-.92.15-2.34-.88-2.67.12-.6,1.82-.8,3.85.47,5.65,1.87,2.66,4.64,4.62,7.31,5.85,3.49,1.61,3.28,3.75,2.78,6.52l-9.74-7.16c-2.62-1.37-3.98-3.75-5-6.38-.21-5.62,4.22-7.81,7.82-10.62.18.18.37.36.56.54.94,2.23.37,4.04-1.52,5.48Z"/>
      <path class="cls-94" d="M54.88,195.48c5.4-5.36,10.66-10.87,16.95-15.24.67-1.08,1.25-2.29,2.89-1.89,2.21,2.37.85,4.13-.98,5.82-3.97,3.81-9.18,6.12-12.55,10.75-1.39,1.91-3.86,2.44-6.15.73l-.16-.18Z"/>
      <path class="cls-85" d="M26.02,183.46c-.85-1.19-2.66-1.34-3.15-2.92,3.65-3.24,8.01-5.38,12.21-7.72,1.36-.76,2.89-.16,3.82,1.31.24,2.95-2.24,3.34-4.08,4.34-1.32.98-2.64,1.96-3.96,2.95-.8,1.66-2.07,2.48-3.95,2.19l-.43-.18-.47.04Z"/>
      <path class="cls-101" d="M73.81,227.54c5.52-1.94,8.27,3.58,12.64,4.78.32.09.28,1.5.41,2.3-4.71-1.7-8.95-4.27-13.06-7.08Z"/>
      <path class="cls-46" d="M104.91,236.51c.34.77,1.02.92,1.76.98.58.42.52.7-.18.85-3.6,1.7-7.18,3.87-10.92.29,1.69-.02,3.17-1.51,5.14,0,2.2,1.68,1.78-3.29,4.19-2.13h.01Z"/>
      <path class="cls-101" d="M61.76,219.61c2.76-.22,5.72-.74,5.15,3.68-1.97-.87-3.76-2-5.15-3.68Z"/>
      <path class="cls-101" d="M67.55,223.64c1.65-.15,3.29-.28,3.25,2.14-1.2-.54-2.41-1.06-3.25-2.14Z"/>
      <path class="cls-43" d="M173.03,220.53c-10.16,8.6-21.9,14.35-34.23,19.08-4.44,1.7-8.37,1.52-11.72-2.19-.72-.71-.99-1.62-1.1-2.59-.16-14.35-.03-28.7-.06-43.06,0-1.31-.11-2.65.47-3.9.71-.95,1.56-1.02,2.51-.38h0c2.05,2.35,1.49,5.21,1.53,7.94-.11.98-.12,1.97-.14,2.96-.13,7.68-.28,8.03,6.41,10.9,7.58,3.24,14.37,7.18,18.84,14.41.67,1.09,1.71,3.52,3.58.85.86-1.08,2.07-1.71,3.14-2.52.37-.27.76-.49,1.17-.69,3.19-.32,6.19-3.04,9.59-.82Z"/>
      <path class="cls-90" d="M128.91,196.51c0-3,0-6,0-9,3.81-.33,6.63,1.58,9.41,3.89,4.53,3.77,10.55,5.38,14.56,10,.94,1.09,2.74.92,4.21,1.2,2.37.46,4.84.81,6.23,3.43.92,1.74,2.66,1.98,4.74,1.66,3.12-.49,3.5,1.38,1.99,3.56-1.22,1.77-2.65,3.33-2.66,5.69,1.84.74,3.88,1.23,5.16-.26,2.25-2.61,4.66-2.31,7.36-1.27-2.39,1.56-3.86,4.37-6.87,5.11-3.37.66-6.74,1.32-10.11,1.98-2.5.41-4.1-.94-5.42-2.8-1.93-2.71-3.81-5.45-5.57-8.29-2.14-3.45-4.68-6.5-9.24-6.82-1.9-.13-3.32-1.42-4.73-2.62-1-.86-2.15-2.33-3.4-1.7-4.37,2.21-4.3-1.74-5.65-3.77Z"/>
      <path class="cls-57" d="M231.02,151.75c.03,2.49-2.35,4.21-2.18,6.75-1.87,3.71-3.75,7.43-5.62,11.14-1.76.89-1.41,2.85-2.14,4.26l-2.16,3.58c-1.16,1.46-2.47,2.79-3.85,4.04-3.98.35-9.61-3.14-10.5-6.47-.29-1.07.06-1.94.62-2.79.46-.69,1.06-1.27,1.6-1.9,5.49-6.35,8.67-13.88,11.12-21.78.97-3.13,2.42-5.75,5.88-6.79,2.05-.62,3.9-1.81,5.84-2.74,1.16-.56,2.58-1.46,3.58-.06,1.02,1.42,1.32,3.7-.43,4.3-2.37.8-.2,2.15-.88,2.98.06,1.89-.3,3.7-.88,5.48Z"/>
      <path class="cls-31" d="M230.95,145.61c.63-.91-1.26-2.64,1.32-3.13,1.2-.22.71-2.11-.01-3.44-3.33,1.67-6.44,3.63-10,4.87-2.1.73-3.37,3.8-3.35,6.65.01,2.24.63,4.79-2.89,5.26-1.1.15-1.39,1.78-.82,2.48,2.32,2.86.07,4.12-1.77,5.4-3.79,2.65-3.46,8.48-8.89,9.75,2.72,2.64,3.98,5.32,6.56,6.82,1.32.77,2.45,1.93,3.83.21,1-.27,1.33.11,1.03,1.08-.34.37-.68.74-1.01,1.1-5.49.13-9.1-3.04-12.3-6.96-2.15-2.45-2.6-4.95-.06-7.39,6.13-5.88,8.19-13.88,11.17-21.39,1.4-3.55,2.98-6.97,5.23-10.06,3.41-1,6.8-1.39,9.87,0-.82-1.77-3.49-.14-4.9-1.38.01-1.95,1.5-2.16,2.61-2.75.73-.25,1.48-.35,2.25-.34,3.26.29,4.8,2.57,6.02,5.22l-.03-.02c.93,3.6-1.22,6.58-1.99,9.84-1.87.67-1.01-1.45-1.87-1.82Z"/>
      <path class="cls-96" d="M215.95,181.57c-.34-.36-.69-.72-1.03-1.08,1.29-1.06,2.05-2.83,4-3.02.07,2.13-1.34,3.2-2.97,4.1Z"/>
      <path class="cls-72" d="M221.07,173.89c.04-1.76-1.12-4.12,2.14-4.26-.09,1.73-.76,3.18-2.14,4.26Z"/>
      <path class="cls-100" d="M167.21,171.79c-1.87,2.34-3.47,4.7-.87,7.56.11,1.84,1.82,2.86,2.31,4.51.2.45.27,1.03.65,1.33,1.49,1.16,3.23,2.34,1.66,4.43-1.45,1.94-3.38,1.83-5.26.38-2.22-1.72-5.3-.66-7.56-2.28-7.37-4.1-13.87-9.58-21.32-13.56-1.37-.73-2.8-.97-4.3-1.12q-6.09-.62-6.09-6.89c0-3.33-.02-6.66.01-9.99,1.57-2.79,4.75-2.55,5.87-.99,2.81,3.88,7.4,4.7,10.78,7.47,2.57,2.11,5.27,3.95,7.38,6.62,3.48,4.41,8.8,5.07,13.59,2.01.66-.36,1.36-.51,2.11-.39.48.15.84.46,1.05.92Z"/>
      <path class="cls-37" d="M158.91,187.51c3,.53,6.59-1.53,8.87,2.43.46.79,2.37-.35,3.23-2.12-1.96-.69-5.35-.78-3.11-4.29.93-.91,1.86-.76,2.79,0,1.55,2.35,4.15,3.43,6.2,5.17,1,1.4.23,1.96-.97,2.26,3,.32,5.22,2.1,7.16,4.35.39,1.53,1.58,1.93,2.94,2.12v-.02c-1.31,2.87,2.13,5.23.88,8.1-3.55.62-7.11-.63-10.87,1.09-1.58.72-4.91-2.49-7.5-3.78-1.47-.73-1.67-1.91-1.63-3.3-1.57-2.39-3.74-3.97-6.15-5.52-2.07-1.33-5.22-3.21-1.85-6.48Z"/>
      <path class="cls-69" d="M172.73,167.43c-1.76,1.55-3.09,3.66-5.52,4.36l-.34-.34c-.57-1.73.5-3.25.62-4.89.61-1.3,1.73-1.98,2.99-2.52.22-.06.44-.11.66-.17.47-.04.92.02,1.36.18.92.52,1.22,1.34,1.09,2.35-.15.45-.45.79-.85,1.03Z"/>
      <path class="cls-27" d="M180.86,191.6c.36.96,1.08,1.53,2,1.91.03.3.06.59.09.89.3.27.39.53.27.78-.12.24-.23.36-.34.36-1.78-.98-3.47-2.16-5.35-2.89-2.73-1.06-1.15-2.54-.64-3.97,1.32.97,2.65,1.94,3.97,2.91Z"/>
      <path class="cls-95" d="M170.69,183.52c-.93,0-1.86,0-2.79,0-.89-1.25-4.36-1.54-1.57-4.18,1.73,1.11,3.36,2.31,4.36,4.18Z"/>
      <path class="cls-14" d="M158.91,187.51c-1.27,4,1.62,5.88,4.4,6.46,3.65.75,3.85,2.76,3.6,5.54-.33,0-.77.12-.98-.05-5.92-4.69-13.63-5.86-19.73-10.62-3.67-2.86-7.48-7-13.15-6.87-1.66.04-2.25-2.46-4.14-2.46-.96-.16-1.93.52-2.88-.03-.37-12.97-.4-25.94.02-38.91,3.23,2.94,3.62,9.59.88,14.94,0,4.16.08,8.32-.04,12.47-.07,2.51.8,3.55,3.44,3.57,8.84.07,15.15,5.1,20.92,11.06.81.84,1.73.88,2.7.89,2.72.04,4.2,1.58,4.97,4.01Z"/>
      <path class="cls-90" d="M126.02,179.48c.97-.33,1.96-3.76,2.88.03,0,2.67,0,5.33,0,8-.66,0-1.33.01-1.99.02-.74-.46-.33-1.43-.88-1.98-.39-2.02-.37-4.05-.02-6.07Z"/>
      <path class="cls-20" d="M218.91,137.51c-.29,2.4-1.35,4.39-2.5,6.55-1.83,3.43-2.97,7.3-4.38,10.99-1.92,5.04-3.77,9.99-8.08,13.47-2.63,2.12-1.5,4.69-1.31,7.2-3.05-.7-4.43-3.65-6.9-5.13.18-.99.38-2.11,1.1-2.71,5.73-4.79,8.05-11.26,9.95-18.23.99-3.62,2.42-6.76-.05-10.22-.61-.86-.37-1.9.6-2.6,2.41-1.23,4.99-.82,7.53-.77,1.52,0,2.98.17,4.05,1.44Z"/>
      <path class="cls-91" d="M206.91,137.51c4.07,4.15,4.07,8.46.66,13.03-1.57,2.11-.31,4.8-1.36,7.22-2.32,5.34-6.36,9.08-10.48,12.83-.53-.11-.83-.43-.87-.98.37-1.68-1.07-3.17-.49-4.87,2.43-1.69,3.92-3.65,2.28-6.75-.38-.71-.48-1.74.12-2.36,3.74-3.81,3.01-8.84,3.78-13.45.33-1.98.7-3.91,2.5-5.17,1.39-.63,2.7-.68,3.86.49Z"/>
      <path class="cls-60" d="M194.88,165.56c-.08,1.35,2.25,2.71-.02,4.05-.27-.11-.55-.16-.85-.15-.42-.6-.84-1.19-1.25-1.79.03-.2.06-.4.09-.61.36-.93.52-2.14,2.04-1.5Z"/>
      <path class="cls-66" d="M182.88,195.55c.02-.38.05-.76.07-1.15,1.26.77,2.34,1.71,3.08,3.01-1.64.37-3.55,1.19-3.15-1.87Z"/>
      <path class="cls-35" d="M230.95,145.61c.62.61,1.24,1.21,1.87,1.82-.02,1.68-.67,3.09-1.79,4.31-.02-2.04-.05-4.09-.07-6.13Z"/>
      <path class="cls-23" d="M42.91,67.51c2.26.58,3.46,2.16,4.18,4.28.49,1.46.15,2.62-1.09,3.38-.47.29-1.37.32-1.87.08-2.03-.99,1.2-2.15-.56-3.56-2.85-.84-3.65,2.56-5.67,3.82-8.03-.42-12.46,5.88-18.15,9.8-1.02.7-1.49,1.95-3.05,2.23-8.97,1.6-8.96,1.65-10.37,9.22-2.38-1.37-2.21-1.31-1.5-3.59.97-3.12-.64-6.57,1.07-9.64,1.44-1.01.84-2.6,1.12-3.94,1.08-1.19,1.89-2.5,1.75-4.2l.04-.03c1.07-.82,1.93,2.51,3.08.15,1.33.93.9,2.35,1.03,3.63.19,1.82.4,3.64,2.91,4.28,1.54-1.83,1.27-4.54,2.98-6.36,1.52-1.61,2.16-4.12,5.25-1.89,1.41,1.01,2.92-.18,2.79-2.14-.19-2.95,1.33-3.94,3.92-3.49,3.95.69,7.68-1.5,11.62-.75.09.02.33-.84.51-1.28Z"/>
      <path class="cls-47" d="M11.89,75.51c-.49,1.16-.98,2.33-1.69,4.01-1.02-1.45.34-3.47-1.39-4.16.78-2.92,2.09-5.55,4.09-7.83.74,2.8-1.12,5.26-1.02,7.98Z"/>
      <path class="cls-64" d="M31.91,85.51c2.15-.76,3.77-2.34,5.49-3.66,1.96-.05,1.34,3.13,3.51,2.66-1.96,1.9-3.91,3.79-5.81,5.63,1.12,1.92,2.6,1.14,3.81,1.37.57.66.57,1.37.21,2.12-3.25,1.82-6.8.36-9.66.89,2.87.56,6.45-1.02,9.71.96.68,2.64-1.41,2.94-3.05,3.59-6.03,2.4-12.21,3.88-18.78,3.46-2.79-.18-5.6.04-8.41-.09-1.67-.05-3.17-.43-4.02-2.06,2.24-2.96,5.15-.36,7.59-.46,2.57-.11,5.07-.08,7.78-.9.03-1.75-2.45-3.31-.64-5.25,1.27-1.36,2.57-2.41,4.64-2.36,1.83.04,2.93-1.51,3.87-2.81,1.01-1.4,2.17-2.45,3.74-3.08Z"/>
      <path class="cls-84" d="M8.94,102.44c4.32-2.11,8.99-.61,13.48-1.2,3.7-.49,7.31-1.31,10.4-2.96,1.99-1.07,5.43.91,6.08-2.77-.59-.66-.59-1.33,0-1.99,0-.67,0-1.33,0-2,3.71-.08,7.75.92,10.11-3.39.33-.61,1.36-1.03,2.13-1.2,7.99-1.74,14-7.25,20.39-11.61,4.4-3,9.29-5.2,13.6-8.49,4.13-3.15,9.53-5.09,14.54-7.1,1.7-.68,3.47-1.12,4.56-2.53,1.3-1.68,1.83-.12,2.66.32v11.92c-1.43.02-.92-1.72-1.99-1.91-1.64,1.69-4,1.4-5.98,2.15-10.08,3.82-19.03,9.57-27.51,16.1-3.01,2.32-6.93,3.23-9.41,6.31-5.92,1.56-9.75,3.63-15.17,8.11-.89.73-1.85,1.38-2.85,1.97-2.71,1.04-5.41-.46-8.87.04.09,0,.6,1.04.52.38-.03-.21.07-.32.29-.33,1.13-.07,2.58-.99,2.91,1.08-8.35.33-16.69.3-25.03-.08-1.53-.68-3.35.4-4.8-.76l-.07-.03Z"/>
      <path class="cls-30" d="M38.85,103.31c-.99-1.27-2.72-.46-3.85-1.82h8.92c2.01-1.18,4.01-1.81,6,.03,2.26,2.32,5.61-.24,7.93,1.77-6.33.36-12.66.32-19,.01Z"/>
      <path class="cls-30" d="M58.97,103.29c3.62-1.25,7.24-1.25,10.87,0-3.62.33-7.24.33-10.87,0Z"/>
      <path class="cls-64" d="M9.01,102.46c1.6.25,3.36-.5,4.8.76-1.66.09-3.37.56-4.8-.76Z"/>
      <path class="cls-45" d="M180.93,117.5c-.69-.89-1.67-1.02-2.69-.99-5.15.15-10.27-.07-15.34-1.01-4.6-1.07-7.52-4.52-10.72-7.57-.97-.92-2.13-1.98-2.11-3.28.12-7.33-5.62-11.32-9.3-16.44-2.46-3.42-6.72-5.38-7.86-10-.4-1.63-2.92-1.39-4.01-2.7h0c-2.43-3.35.43-7.64-1.97-10.99-.01-5.67-.02-11.33-.03-17,.01-3.34.03-6.68.04-10.02,4.76.66,3.41,3.32,1.97,6.01v12c1.15,1,.77,2.46,1.14,3.69.58,1.91,1.27,4.18,3.4,4.55,4.87.84,7.27,4.58,9.61,8.06,4.3,6.4,8.93,12.55,13.01,19.12,3.98,6.41,9.53,11.79,12.94,18.67.86,1.74,2.8,2.19,4.64,2.53,3.27.6,6.34,1.78,9.26,3.38,4.1-.03,8.13.41,11.98,1.96-4.65.01-9.3.03-13.96.04Z"/>
      <path class="cls-105" d="M182.91,115.5c-4.43.8-8.05-2.24-12.3-2.66-1.67-.17-3.31-2.14-4.04-4.85-1.08-4.02-4.61-7.14-7.09-10.54-3.3-4.51-6.11-9.38-9.31-13.69-4.26-5.73-7.87-12.14-12.97-17.27-1.53-1.54-3.44-1.66-5.36-.5-2.36-3.13-3.46-6.58-2.93-10.5.32.08.65.13.95.26,1.68.71.52,4.61,3.73,3.48,2.37-.83.65-3.34,1.69-4.89,2.13.25,3.32,1.79,4.44,3.43,1.39,2.05,2.67,4.14,5.06,5.34.93.47,1.97,1.65,2.11,2.63.8,5.52,5.24,8.51,8.13,12.62,4.14,5.88,9.12,11.07,12.56,17.63,3.19,6.07,8.69,10.92,13.14,16.33.81.99,2.21,1.6,2.17,3.18Z"/>
      <path class="cls-76" d="M189.11,64.78c.93.24,1.87.49,2.8.73-5.22,6.41-6.49,6.34,3.62,8.81-.89,1.96-3.28.48-4.42,2.35.26,3.25,3.67,4.88,5.27,7.64.97,1.68,2.75,2.86,2.6,5.14-.06.86.29,1.73,1.28,1.86,6.64.88,6.31,6.04,6.64,10.77.18,2.55-1.07,5.76,3.09,5.9.43,2.34-3.07.63-2.35,3.1.51,1.75,1.38,2.43,3.11,2.55,1.06.07,1.72.92,2.17,1.86-1.67,0-3.33,0-5,0-2,.69-4,.69-6,0-4.85-1.62-5.7-6.39-7.02-10.17-2.01-5.72-5.02-10.72-9.55-14.28-6.04-4.75-7.77-10.43-6.42-17.55,1.94-1.92,6.12,1.39,7-3,.99-1.95,3.31-3.16,3.2-5.73Z"/>
      <path class="cls-18" d="M178.91,73.51c1.65,1.17,1.21,2.79,1.02,4.4-.53,4.5,1.26,7.67,4.79,10.67,5.3,4.49,9.59,9.64,11.67,16.91.9,3.16,1.95,7.68,5.53,10.02-4.75,1.11-8.91-1.53-13.4-2.12-1.24-.16-1.61-1.11-1.52-2.18.47-5.75-3.56-10.01-6.72-13.17-4.08-4.09-7.32-8.48-10.03-13.34-1.18-2.11-2.3-3.98-4.35-5.18-1.87-1.08-2.7-2.59-3.16-4.73-1.09-5.12-1.24-5.09,4.15-5.28-.29,4,3.28,3.45,5.2,3.65,2.21.23,4.54.54,6.83.34Z"/>
      <path class="cls-68" d="M128.91,43.51c-.67-2,1.6-4.96-1.97-6.01-.21-1.76,2.15-2.25,1.97-3.99,5.54.75,10.9,1.83,14.37,6.93.65.96,1.86,1.27,3,1.57,6.71,1.78,11.67,5.97,15.63,11.5,1.05,2.2-1.11,2.78-2.01,3.99-2.09,1.74-.68,4-.77,6-.05,1.07.7,2.15.14,3.36-.55,1.18-.63,2.69-2.51,2.53-1.56-.13-1.5-1.32-1.89-2.44-1.58-4.5-2.93-8.98-2.05-13.85.15-.82-.33-1.61-1.36-1.81-1.23,1.33.11,3.31-1.61,5.14-5.87-4.51-10.4-10.53-16.2-15.56-1.42,1.76-.21,3.95-1.08,5.78-2.24.16-1.22-3.6-3.66-3.14Z"/>
      <path class="cls-75" d="M161.92,53.51c-4.06-3-8.68-5.31-11.79-9.5-.17-.22-.61-.42-.88-.37-5.47,1.15-7.88-3.11-10.86-6.21-2.1-2.18-4.1-2.6-6.33-.3-1.64-.83-1.25-3.24-3.16-3.63,0-2,0-4,0-6,1.93-.2,2.72-1.92,4-3,.67,0,1.33,0,2,0-.22,2.48,1.15,3.29,3.33,2.98,2.78-.39,4.47.91,6.23,2.96,4.07,4.74,9.75,7.31,15.16,10.12,2.46,1.27,3.3,3.25,3.21,5.61-.12,3.18,1.65,3.53,4.07,3.34.76,2.05-3.58,1.53-2.01,3.99-1,0-2,.01-2.99.02Z"/>
      <path class="cls-18" d="M185.91,70.51c1.63,1.52.29,2.21-.86,2.83-2,1.08-4.09.14-6.14.17.02-.65.03-1.29.05-1.94,2.39.1,4.95,1.36,6.95-1.06Z"/>
      <path class="cls-56" d="M80.91,49.51c1.3-.03,1.97-.7,2-2,1.42-1.25,2.75-2.59,4-4,5.41,1.49,8.37-2.47,11.81-5.33,1.73-1.44,3.45-2.91,5.09-4.3,1.9,1.38.36,3.43,1.64,4.69,1.13-1.53-.4-3.78,1.45-5.05v12.96c-1.45-.19-1.13-1.9-1.17-1.87-3.17,2.82-8.89.7-10.94,5.6-.59,1.4-1.84,1.47-2.94,1.26-3.78-.72-6.46,1.47-7.78,4.18-1.82,3.74-4.59,4.66-8.15,4.86-1.21.23-.11,1.62-1.01,2h0c-1.7-2.03-.7-5.22-2.99-7.01.94-2.41,1.09-5.71,5.37-3.77.71.32,2.02-2,3.63-2.22Z"/>
      <path class="cls-49" d="M80.91,49.51c-.22,2.1-3.83,2.51-2.13,5.4-2.18-.41-2.37-1.99-2.69-3.22-2.38.61-2.71,2.77-4.17,3.81-.78-1.12-1.38-2.79-3.08-.96-.62-.36-1.25-.72-1.87-1.08-.91-2.02-3.43-2.67-4.14-4.86,3.2-1.78,4.61,1.06,6.52,2.79,1.93-1.73,1.47-6.04,5.57-4.88,2.37.26,5.51-1.03,6,3Z"/>
      <path class="cls-77" d="M61.89,75.45c2.41-2.6,4.92-2.01,7.12-2.38-1.76,1.7-4,1.95-7.12,2.38Z"/>
      <path class="cls-63" d="M68.97,15.56c.3-.04.6-.07.9-.11,4.22,1.45,5.91-2.86,9.02-3.95,2.43-1.2,4.38-2.35,7.49-.38,2.67,1.69,6.73-.29,10.45,1.03-1.93,3.47-3.49,7.05-7.62,7.25-3,.14-1.52,3.99-4.27,4.03-2.78.04-1.36-3.58-3.82-3.89-3.86-.48-8.02.27-9.69,3.24-2,3.54-3.17,2.75-5.52,1.06-.68-.49-1.89-.24-2.81-.33-1.12,1.89,1.86,1.79,1.16,3.57-2.09-.43-4.25,1.05-6.54.07.48-3.45,4.42-4.44,5.2-7.6,2.59-.47,5.22-.89,6.06-4.01Z"/>
      <path class="cls-99" d="M90.89,5.59c3.09-.39,5.67-2.04,8.36-3.4,1.65-.83,3.15-1.15,3.67,1.29-2.23,5.05-10.45,8.15-16.44,4.87,1.2-1.45,3.42-1.22,4.41-2.76Z"/>
      <path class="cls-48" d="M86.37,26.6c-.75,1.29-1.75.92-2.79.38-.34-1.29.5-1.38,1.34-1.4.64,0,1.33.03,1.45,1.01Z"/>
      <path class="cls-65" d="M49.91,101.52c-2,0-4-.02-6-.03,2.16-3.12,5.58-5.22,7.13-8.89.62-1.46,2.24-1.07,3.51-1.09,2.45-.04,4.91-.01,7.36-.01,2-1.53,4-1.82,6,0-.29.55-.57,1.59-.86,1.59-4.17,0-4.81,2.83-4.71,5.76-2.43,1.85-6.12-1.37-7.44,2.63-1.66,0-3.33.02-4.99.03Z"/>
      <path class="cls-36" d="M67.91,91.51h-6c0-1.48.72-2.78,1.95-3.25,7.88-3,13.67-9.33,21.09-13.25,4.07-2.15,8.43-3.85,12.35-6.2,2.63-1.58,5.07-.98,7.6-1.29v5.24c-4.79.1-7.78,2.57-11.08,5.74-4.2,4.03-10.08,6.24-14.95,9.64-3.4,2.37-6.74,4.07-10.97,3.38Z"/>
      <path class="cls-71" d="M74.91,62.5c.09-1.51-.26-3.09.62-4.79,1.71.99.56,1.94.39,2.79-.03.82-.19,1.58-1.01,2Z"/>
      <path class="cls-49" d="M86.91,43.51c.46,3.12-.88,4.46-4,4-.46-3.13.88-4.46,4-4Z"/>
      <path class="cls-93" d="M128.91,75.51c3.61-.35,6.69-.15,6.2,4.88-.11,1.12,1.03,2.1,2.06,2.65,5.97,3.18,7.69,10.34,13.14,14.01.41.28.61,1.22.55,1.82-.87,8.44,5.44,11.46,11.15,14.99.46.29.6,1.09.9,1.66-7.28,0-14.58-.27-21.85.11-3.56.19-6.39-1.2-9.29-2.54-2.22-1.03-2.96-3.17-2.92-5.78.14-10.59.06-21.19.06-31.79Z"/>
      <path class="cls-93" d="M126.94,64.52c2.06.23,1.97,1.76,1.97,3.24,0,2.58,0,5.17,0,7.75-2.05-.22-2-1.74-1.99-3.23.01-2.59.02-5.17.02-7.76Z"/>
      <path class="cls-106" d="M74.12,178.55c.8-2.42-.83-3.8-2.25-5.28,1.43-3.87,4.38.05,6.47-1.12-.63.9-1.26,1.8-1.88,2.68.9,1.18,1.91,1.29,3.15.92,1.55-.46,2.88.26,3.07,1.71.98,7.46,6.97,11.05,12.12,14.78,6.39,4.63,9.61,10.45,10.49,18.27,1.2-1.1-.01-3.24,1.62-4,1.9,4.12,1.59,8.46,1.28,12.79-2.72,4.81-3.21,4.89-7.41,1.95-3.52-2.46-5.52-6.12-7.8-9.55-2.26-3.42-4.11-6.48-8.98-7.58-7.11-1.6-12.53-12.9-11.08-20.61,1.35-1.42,3.11-2.74,1.22-4.96Z"/>
      <path class="cls-104" d="M56.92,159.49c-3.21-.44-5.77.73-8.03,2.98-1.62,1.62-3.33,3.32-5.98,3.02-.56-2.45-1.61-4.62-3.1-6.69-2.59-3.59-5.62-7-6.14-11.71-.09-.84-.45-1.91-1.15-2.12-4.87-1.47-6.57-6.96-11.2-8.71-1.61-.61-2.64-1.95-3.43-3.46-2.1-4.01-4.33-7.83-9.34-8.89-1.13-.24-2.66-1.15-1.19-2.89,5.23-1.16,10.45-2.07,15.56.47,1.65,4.23,4.82.94,7.58,1.54.41,3.73,4.47,5.8,4.82,9.9.09,1.11,1.28,2.14,2.42,2.31,4.48.67,7.03,4.2,10.09,6.81,4.2,3.59,4,3.93-.94,6.81,3.02,3.8,9.36.53,11.67,5.22-.36,1.94-2.07.98-2.89,1.79-.44,1.47,2.93,1.69,1.25,3.6Z"/>
      <path class="cls-21" d="M105.91,187.51c0,.66.03,1.33-.02,1.99-.08,1.11.24,2.63-1.41,2.71-1.68.08-1.66-1.43-1.54-2.54.37-3.28-1.5-4.89-3.84-6.85-2.72-2.28-4.26-5.93-6.9-8.36-3.4-3.13-5.23-7.63-9.99-9.78-2.3-1.04-3.05-5.26-5.89-6.95-2.1-1.25-4.16-2.41-6.11-4.07-7.27-6.18-12.5-14.61-20.59-19.65-5.05-3.14-6.2-8.1-8.72-12.51,1.54-1.74,3.64-1.29,5.58-1.41,1.34.02,2.69.02,3.97.51,2.91,1.73,5.18,3.99,6.59,7.17,2.8,6.34,9.35,9.23,13.51,14.37,1.43,1.77,3.45,3.09,4.7,5.1.35.56.72,1.21,1.29,1.5,11.4,5.72,17.24,17.05,25.86,25.59,1.74,1.73,1.66,4.32,3.15,6.15.6,1.36.73,2.78.59,4.24-.19.92-.26,1.85-.24,2.79Z"/>
      <path class="cls-19" d="M107.26,123.4c1.34,1.22,1.59,2.86,1.59,4.52,0,19.52-.05,39.04-.08,58.56-.27.49-.56.5-.85.02,0-.33-.01-.66-.02-1-2.77-4.14-.85-8.8-1.45-13.17-.27-3.81.95-7.58.43-11.04-.39,1.81.95,4.37-1.46,6.37-2.89-2.5-1.78-5.8-1.97-8.79.26-4.11.25-8.28.1-12.32-.07-1.79-2.27-4.53-4.48-6.22-5.67-4.32-7.54-11.51-12.25-16.6-.83-.9-.57-2.19.64-2.99,6.88-1.2,13.66-1.63,19.8,2.66Z"/>
      <path class="cls-67" d="M46.91,121.5c-2,0-4,0-6,0h-18c-5.32.54-10.78-1.11-16,.99-1.03,2.04-1.48,2.05-3.76.03,1.18-2.27,3.34-2.81,5.61-3.17,15.16-.75,30.32-.19,45.48-.29,1.68,2.89-.97,2.31-2.08,2.28-1.76-.05-3.51-.8-5.25.16Z"/>
      <path class="cls-46" d="M106.92,219.51c1.81-2.4,1.16-5.09.56-7.59-.44-1.82-.52-3.59-.56-5.41.05-.74.1-1.47.18-2.57.72,1.08,1.21,1.81,1.7,2.54.43,9.66.41,19.33-.02,28.99-.56.5-1.13,1.01-1.69,1.51.95-2.84.22-5.65-.17-8.47-2.79-3-.45-6,.01-9Z"/>
      <path class="cls-86" d="M107.88,171.51c0,4.66.01,9.33.02,13.99-.66.67-1.33,1.33-1.99,2-.81-.43-.98-1.18-1-2.01,1.65-3.29-.83-6.42-.37-9.64.29-2.01-.49-5,3.34-4.35Z"/>
      <path class="cls-86" d="M107.92,186.51c.29,0,.57,0,.85-.02.31,3,.36,5.99,0,8.99-1.77-2.85-.48-5.99-.86-8.97Z"/>
      <path class="cls-6" d="M106.92,219.51c0,3,0,6-.01,9-2.61,1.16-5.03-.65-6.09-2-2.13-2.71-6.96-2.05-7.47-6.37-4.66.32-6.65-5.86-11.81-4.7-3.22.72-5.44-1.28-6.5-4.18-.93-2.54-2.42-3.72-5.14-3.79-2.66-.07-5.3-.55-7.08-2.91-1.11-1.46-2.73-1.12-4.15-.99-2.05.19-3.51-.59-4.75-2.06l1.13-5.84c3.62.17,6.26-1.32,7.89-4.61.9-1.81,2.15-3.27,4.32-3.59,2.54-.37,3.35-3.24,5.65-3.95,2.07,1.01.31,2.41.37,3.62.38,7.43,6.37,11.18,10.57,16.1.17.2.67.3.94.21,4.54-1.44,5.9,2,7.63,4.92,3.18,5.38,6.7,10.47,12.09,13.97,1.72-.14,1.13-2.3,2.41-2.82Z"/>
      <path class="cls-46" d="M104.9,236.5v-4.53c1.45,2.04,1.23,3.33.01,4.54h-.01Z"/>
      <path class="cls-25" d="M3.15,122.53c1.25-.3,2.52,1.8,3.76-.03.64.15,1.29.46,1.93.44,5.89-.19,7.71,4.51,9.82,8.51,1.08,2.05,2.41,3.02,4.31,4.24,4.42,2.83,8.27,6.54,12.36,9.9-1.59,4.35,2.25,6.79,3.77,9.94,1.26,2.61,3.76,4.53,4.66,7.62.44,1.49-.73,1.55-.85,2.35-2.59,1.69-1.24,3.97-.9,6.1v-.02c-1.5.43-2.79,1.09-3.15,2.81l-.08.08c-2.97-2.59-5.49.25-6.94,1.58-2.7,2.47-5.8,3.38-8.97,4.5v.02c-1.06-1.3-.68-3.17-1.75-4.47-.73-2.18-2.51-3.37-4.33-4.51l.02.03c1.63-5.42-1.78-9.24-4.52-13.05-.84-1.16-1.24-2.07-1.38-3.36-.34-3.12,1.65-7.2-3.42-8.45-.26-.07-.52-.87-.49-1.31.31-4.93-3.02-9.26-2.19-14.36.45-2.74-2.64-4.95-2.04-7.95-.06-.32.07-.53.39-.6Z"/>
      <path class="cls-10" d="M86.84,119.61c5.06-.52,10.15.96,15.19-.25,1.97,1.05,4.11,1.88,5.22,4.04-6.59-2.72-13.52-1.79-20.35-1.9-3.36,2.81-7.33.98-11,1.49-4.36-.06-8.85,1.25-12.96-1.28.03-3.08,2.4-1.56,3.63-1.63,6.75-.39,13.53.42,20.27-.48Z"/>
      <path class="cls-44" d="M16.78,171.59c3.13-.55,4.83.76,5.13,3.92.69,1.4.49,2.25-1.31,2.14-1.76-1.71-3.02-3.74-3.82-6.05Z"/>
      <path class="cls-85" d="M20.61,177.64c.97-.38,1.26-1.18,1.31-2.14,1.67,1.43.78,3.35.97,5.06-1.14-.68-1.92-1.64-2.27-2.92Z"/>
      <path class="cls-85" d="M38.85,174.39c-1.18-3.45,1.19-2.91,3.16-2.81-.74,1.29-1.86,2.16-3.16,2.81Z"/>
      <path class="cls-87" d="M128.91,196.51c2.45-.08,1.51,2.59,3.05,3.69,1.78-3.65,3.92-2.28,5.86-.23,2.11,2.24,4.38,3.31,7.63,3.78,4.22.61,6.23,4.78,8.46,8.18,2.56,3.9,4.46,8.38,9.01,10.58h0c-.94.75-2.22,1-3,2-.34.9-.9,1.81.54,2.62-1.92.59-4.45.66-4.56-.05-.5-3.07-4.54-3.05-4.77-5.47-.27-2.85-1.92-4.03-3.9-5.23-3.35-2.02-6.42-4.68-10.59-4.91-1.6-.09-1.56-1.94-2.37-2.47-1.99.39-.68,2.77-2.47,2.97-4.3-4.54-2.52-10.2-2.88-15.46Z"/>
      <path class="cls-16" d="M126.04,185.55c.74.46.83,1.21.88,1.98-.02,16.06-.03,32.12-.05,48.18-1.37-1.1-1.09-2.71-1.1-4.13-.13-15.34-.28-30.69.27-46.03Z"/>
      <path class="cls-90" d="M159.91,224.51c.08-2.04,1.54-2.02,3-2-.56,1.33-1.56,1.99-3,2Z"/>
      <path class="cls-69" d="M126.92,155.5c-.5-4.97.99-10.05-.88-14.94-.13-.35-.25-.7-.38-1.04.74-2.7,2.12-4.8,5.09-5.41,3.29-.82,6.59-1.49,10-.98,2.55,2.08.99,3.1-1.1,3.46-2.77.48-5.44,1.37-7.58,1.8,5.55,5.84,14.45,8.41,19.26,16.07,3.03,4.83,7.8,8.09,11.37,12.43,1.1,1.34,2.89,2.4,2.21,4.62-2.37,3.15-4.43,4.61-9.1,2.65-3.44-1.45-5.73-2.96-7.8-5.86-2.63-3.67-7.41-4.81-10.55-7.98-1.53-1.54-2.58,1.01-4.31.42.75-4.94-2.2-5.75-6.22-5.22Z"/>
      <path class="cls-74" d="M140.93,133.54c-2.79.13-5.7-.73-8.1,1.8-1.18,1.25-1.93.13-2.08-1.23.8-2.08,2.73-1.66,4.24-1.7,14.85-.32,29.69-.42,44.54-.04,5.26-.77,10.55-.19,15.83-.33.92-.02,1.58.34,1.71,1.35-4.34,3.07-9.29.86-13.9,1.6-4.53.07-9.06-.11-13.59,0-3.25.16-6.53-.43-9.76.29-2.74,1.11-5.75-1.49-8.42.64-.44.24-.9.41-1.38.52-3.38.12-6.19-1.52-9.09-2.9Z"/>
      <path class="cls-55" d="M196.9,133.48c-3.52-1.98-7.34-.51-11-.89-2.1-.22-4.24-.15-6.36-.21.22-.23.44-.47.66-.7,8.79.27,17.58.42,26.37-.06,6.42.98,12.9-.01,19.33.55.96.5,2.3.13,2.95,1.32-.67.04-1.33.07-2,.11-4.47,1.63-9.1,1.74-13.77,1.47-4.6.2-9.2-.18-13.8-.26-.95-.16-1.8-.51-2.4-1.31Z"/>
      <path class="cls-89" d="M212.92,133.52c4.64.02,9.29.05,13.93.07-.64.44-1.29.89-2.38,1.64,2.03.5,4.14-.01,5.99,2.18-4.26-1.27-7.84.5-11.56.1-1.33,0-2.66,0-4,0-.95-1.19-2.6-2.02-1.99-3.98Z"/>
      <path class="cls-4" d="M140.93,133.54c3.7-1.26,6.46,2.28,9.98,1.96,2.99-.46,4.94-.76,4.59,3.85-.19,2.51,1.66,5.86,3.97,8.29,3.31,3.48,6.72,6.86,10.09,10.27,2.11,2.15,2.62,4.03,1.36,6.58h0c-.9.82-2.85.08-2.99,2.02,1.73,2.09-.13,3.41-1.05,4.93-.65.02-1.3.04-1.95.05-10.95-11.91-20.86-24.91-36.4-33.27,4.69-1.19,7.91-3.22,11.87-2.83,1.29.13.68-1.13.54-1.86Z"/>
      <path class="cls-7" d="M170.91,164.51c-.24-5.62-5.18-7.99-8.24-11.59-3.11-3.64-7.41-6.38-7.85-11.78-.16-1.99-2.47-1.25-3.39-2.32.45-2.21,2.73-.54,3.5-1.9-1.18-.93-3.1.2-4.02-1.41h0c4.29-2.12,8.7.47,12.58-.52-1.19-.36-3.01.56-4.58-.48,3.17-2.01,6.68-.54,10-.99.52.48,1.28.28,1.79.54,3.13,1.55,6.48,1.01,9.76,1.27,1.23.1,2.67.45,2.56,2.29-.97,1.07-2.27,1.21-3.59,1.3-3.81.36-7.58-.42-10.82-.44,3.09-.46,4.37,1.47,4.7,4.83.47,4.81,2.21,9.23,4.88,13.26,1.2.85,2.56,1.52,3.22,2.96.22.79.06,1.5-.39,2.17v-.05c-3.41-.31-5.59,3.37-9.08,2.85-.34,0-.69.02-1.03.02Z"/>
      <path class="cls-53" d="M171.94,164.48c2.86-1.49,5.4-4.03,9.1-2.85-1.24,1.14-3.26,1.01-4.23,2.6-1.27.81-2.54,1.62-3.81,2.43-.1-.85-.2-1.7-1.05-2.18Z"/>
      <path class="cls-7" d="M167.92,166.53c-.77-.5-1.04-1.17-.43-1.91,1.06-1.31,2.28.08,3.43-.11-.68,1.15-1.96,1.39-2.99,2.02Z"/>
      <path class="cls-53" d="M181.03,161.69c-.04-.73-.08-1.46-.12-2.19,3.09-2.48,5.65-1.01,8.13,1.08,1.16,1.41,2.86,2.59,2.19,4.84-.4.51-.83.54-1.3.08-.32-.02-.65-.04-.97-.06-.93-1.32-2.19-2.08-3.81-2.24-1.15-1.12-2.73-1.06-4.13-1.51Z"/>
      <path class="cls-60" d="M189.93,165.5c.35-.03.7-.06,1.05-.09.46-.68,1.03-1.42,1.88-.77.9.7.57,1.71.21,2.62-.1.14-.21.27-.32.41-1.16-.44-2.09-1.18-2.82-2.18Z"/>
      <path class="cls-41" d="M212.92,133.52c1.08,1.12,2.39,2.12,1.99,3.98-2.67,0-5.33,0-8,0-1.33,0-2.67,0-4,0-.26.06-.52.12-.78.18-2.55.2-5.21.89-7.41-1.68,2.92-2.91,6.3.02,8.66-.9,1.24-.02.56-1,.72-.35.05.18-.12.38-.37.27-1.54-.7-3.97,1.42-4.81-1.49,4.67,0,9.33,0,14,0Z"/>
      <path class="cls-103" d="M193.08,167.27c-.19-1.2-.03-2.78-2.09-1.86.03-1.69-2.24-2.15-2.09-3.9-.02-.82-.61-1.76-.17-2.43,4.57-6.91,3.23-14.05.99-21.26-.08-.26.21-.58.46-.84.46-.33.96-.54,1.51-.66,3.68,1.01,7.54.22,11.22,1.18h0c-.67,4.57-1.64,9.13-1.89,13.72-.15,2.71-.68,4.45-4.03,4.76,2.06,2.4,2.19,4.8,1.74,7.47-1.24.63-3.36,0-3.86,2.11-.6.57-1.2,1.14-1.8,1.71Z"/>
      <path class="cls-1" d="M38.9,93.51v1.99h-15.36c0-.66,0-1.33,0-1.99h15.36Z"/>
      <path class="cls-52" d="M49.22,158.01c2.07-.62,3.33-.69,4.99-.04-1.62.82-2.91.57-4.99.04Z"/>
      <path class="cls-86" d="M104.91,180.51c-2.02-2.9-4.18-5.72-5.98-8.74-.78-1.32-1.68-2.43-2.77-3.43-5.01-4.62-10.57-8.73-13.53-15.22-.59-1.29-1.66-2.86-3.44-2.14-2.88,1.16-3.75-.65-4.91-2.63-2.7-4.59-6.87-8.11-10.88-11.2-4.01-3.09-6.55-6.66-8.5-10.96-.91-2-3.71-2.24-3.99-4.68,2.39-.69,4.83-.96,7.31-.86,4.09,1.36,6.45,5.22,9.89,7.19,7.95,4.53,13.6,11.48,20.25,17.37,3.52,3.12,6.49,6.58,8.66,10.76,1.22,2.35,2.56,4.61,4.8,6.24,3.23,2.35,2.38,6.34,3.32,9.53.79,2.69.75,5.86-.23,8.76Z"/>
      <path class="cls-5" d="M104.91,180.51c1.3-5.39-2.47-10.08-2.11-15.34.02-.29-.13-.78-.35-.88-6.88-3.42-7.24-11.98-12.87-16.34-5.6-4.33-9.57-10.84-15.49-14.2-5.47-3.11-9.03-8.36-14.69-10.89-.3-.14-.33-.88-.49-1.35,1.33-1.21,2.67-1.07,4,0,4.33,0,8.67,0,13,0,6.1,2.62,10.97,6.43,12.76,13.22.21.81.53,1.7,1.2,2.13,8.07,5.11,9.72,14.65,15.03,21.65v7.8c.32.01.65.03.97.04v-10.17c2.92,2.16,1.79,4.95,1.98,7.45.19,2.62.03,5.26.02,7.89-2.79.49-1.73,2.72-1.97,4.36-.46,3.2,1,6.59-1,9.63v-5Z"/>
      <path class="cls-50" d="M62.91,121.51c-1.33,0-2.67,0-4,0-2.67,0-5.33,0-8,0-1.33,0-2.67,0-4-.01,2.24-2.36,5.67.32,7.94-1.88,10.66,0,21.33,0,31.99,0-5.87,2.02-11.93.33-17.87.92-2.03.2-4.28-.81-6.06.98Z"/>
      <path class="cls-54" d="M104.91,158.51c-2.5-2.02-4.52-4.29-6.08-7.26-2.41-4.6-3.53-10.34-9.45-12.46-1.01-.36-2.08-2.02-2.19-3.17-.63-6.61-5.67-9.34-10.39-12.44-.46-.3-.6-1.1-.89-1.66,3.67,0,7.33,0,11,0,3.62,4.98,7.56,9.74,10.23,15.36.64,1.35,1.77,2.44,3.41,2.59,1.59.15,1.79,1.23,2.45,2.46,2.88,5.35,1.66,11.03,1.91,16.59Z"/>
      <path class="cls-106" d="M68.89,195.05c-.53-.09-.82-.43-.81-.94.02-.67.28-1.3,1.07-1.08.28.08.5.72.56,1.13.07.52-.28.84-.83.89Z"/>
      <path class="cls-38" d="M190.91,137.51c-.33,0-.67,0-1,0-2.34,1.93-4.67,1.9-7,0-.81-1.1-2.04-1.17-3.15-.96-4.14.78-7.33-1.64-10.84-3.03,4.67,0,9.34,0,14.01.01,3.54,1.29,7.37-.27,10.86.89.46,2.62-3.03.98-2.88,3.09Z"/>
      <path class="cls-80" d="M190.91,137.51c-.64-.45-1.29-.91-2.5-1.76,1.71-.17,3-.3,4.15-.41.48-.5.39-.64-.13-.74-3.14-.61-6.53.95-9.51-1.07,4.66-.01,9.31-.03,13.97-.04.68.01,1.35.02,2.03.04,1.95,2.13,4.82.08,7.77,2h-11.58c2.98,1.89,5.85-.15,7.79,1.99-4,0-8,0-12,0Z"/>
      <path class="cls-4" d="M158.91,134.51h6.83c0,.33,0,.67,0,1h-14.84c.32-2.47,2.15-2.04,3.73-1.86,1.44.17,2.85.56,4.27.86Z"/>
      <path class="cls-12" d="M182.91,137.5c2.33,0,4.67,0,7,0,2.54,1.96,3.61,4.58,2.97,7.68-.95,4.6,2.73,10.26-3.04,13.87-.05.03,1.42,2.26-.93,2.45-2.45-1.51-5.03-2.52-7.99-2.01-1.05-.59-2.31-.87-3-1.99.8-2.89,3.04-.16,4.34-1.1-1.88-6.16,1.01-13.17-3.33-18.9,1.33,0,2.66,0,3.99,0Z"/>
      <path class="cls-38" d="M178.91,137.51c4.26,2.14,3.95,5.97,4.12,9.94.14,3.14-1.94,6.98,1.88,9.48-2.04,2.86-4.7-.15-7.01.58-.65-.06-1.87-.08-1.88-.18-.31-4.64-4.39-8.15-4.06-12.85.27-3.89-1.01-5.56-4.97-5-1.09.15-2.34.21-3.9-1.96h15.81Z"/>
    </g>
  </g>
</svg>